<?xml version="1.0" encoding="UTF-8"?> <svg xmlns="http://www.w3.org/2000/svg" viewBox="0 0 126.646 33.858"> <defs> <style>.a{fill:#007096;}.b{fill:#009cde;}.c{fill:#00aec7;}.d{fill:#ff585d;}.e{fill:#ffc72c;}.f{fill:#fff;}</style> </defs> <g transform="translate(0 -2.036)"> <rect class="a" width="16.929" height="2.411" transform="translate(42.054 33.429)"></rect> <rect class="b" width="16.929" height="2.411" transform="translate(58.983 33.429)"></rect> <rect class="c" width="16.929" height="2.411" transform="translate(75.912 33.429)"></rect> <rect class="d" width="16.929" height="2.411" transform="translate(92.841 33.429)"></rect> <rect class="e" width="16.929" height="2.411" transform="translate(109.717 33.429)"></rect> <path class="f" d="M13.286,3.8A14.439,14.439,0,0,1,21.7,6.371a1.379,1.379,0,0,1,.268,2.089l-.643,1.071c-.482.857-1.179.911-2.089.375a10.514,10.514,0,0,0-5.786-1.821c-5.625,0-8.625,4.125-8.625,8.893,0,4.822,3.107,9.214,8.679,9.214a10.888,10.888,0,0,0,6.322-2.25c.8-.589,1.5-.589,2.089.268l.75.964a1.417,1.417,0,0,1-.214,2.089,14.362,14.362,0,0,1-9.107,3.214C5.25,30.479,0,24.64,0,17.032A12.849,12.849,0,0,1,13.286,3.8Z" transform="translate(0 -1.764)"></path> <path class="f" d="M43.829,40.218a2.83,2.83,0,0,0,1.286.321,3.552,3.552,0,0,0,2.946-2.464l.7-1.607-7.018-16.5c-.482-1.071,0-1.768,1.179-1.768H44.9a1.624,1.624,0,0,1,1.714,1.232L50.1,28.861c.321.964.7,2.518.7,2.518h.054s.321-1.446.643-2.411l3.268-9.482A1.63,1.63,0,0,1,56.472,18.2h1.821c1.125,0,1.607.7,1.232,1.768l-7.714,19.5a7.031,7.031,0,0,1-6.7,4.875,6.8,6.8,0,0,1-2.571-.536,1.348,1.348,0,0,1-.7-1.982l.321-.8A1.374,1.374,0,0,1,43.829,40.218Z" transform="translate(-19.293 -8.45)"></path> <path class="f" d="M78.454,6.2a1.356,1.356,0,0,1,1.5-1.5h1.554a1.333,1.333,0,0,1,1.5,1.5v6.7A10.449,10.449,0,0,1,82.9,14.45h.054a6.451,6.451,0,0,1,5.679-3c4.875,0,8.143,3.964,8.143,9.643,0,5.893-3.643,9.75-8.464,9.75a6.237,6.237,0,0,1-5.679-3.107h-.054a4.574,4.574,0,0,1,.054.8v.589c0,.8-.482,1.286-1.5,1.286H79.9a1.333,1.333,0,0,1-1.5-1.5V6.2Zm9.054,20.786c2.571,0,4.661-2.089,4.661-5.732,0-3.482-1.875-5.786-4.554-5.786-2.411,0-4.661,1.768-4.661,5.732C82.954,24.2,84.507,26.986,87.507,26.986Z" transform="translate(-36.399 -2.182)"></path> <path class="f" d="M125.675,17.4c5.25,0,8.2,3.75,8.2,8.839a1.6,1.6,0,0,1-1.607,1.554h-11.3a5.315,5.315,0,0,0,5.572,5.089A7.94,7.94,0,0,0,130.55,31.7c.911-.429,1.554-.321,2.036.482l.429.75a1.413,1.413,0,0,1-.482,2.036,11.716,11.716,0,0,1-6.268,1.875,9.529,9.529,0,0,1-9.965-9.7C116.3,21.364,120.157,17.4,125.675,17.4Zm3.643,7.554c-.054-2.571-1.607-4.125-3.75-4.125-2.357,0-4.018,1.607-4.447,4.125Z" transform="translate(-53.995 -8.078)"></path> <path class="f" d="M152.454,19.607a1.333,1.333,0,0,1,1.5-1.5h1.393a1.356,1.356,0,0,1,1.5,1.5v1.768a8.047,8.047,0,0,1-.107,1.286h.054c.75-2.2,2.732-4.661,5.357-4.661,1.018,0,1.393.482,1.393,1.5v1.393a1.4,1.4,0,0,1-1.554,1.5c-3.375,0-4.982,3.321-4.982,6.7v5.947a1.312,1.312,0,0,1-1.5,1.5H153.9a1.333,1.333,0,0,1-1.5-1.5V19.607Z" transform="translate(-70.755 -8.357)"></path> <path class="f" d="M179.164,17.793H178.2a1.333,1.333,0,0,1-1.5-1.5V15.65a1.333,1.333,0,0,1,1.5-1.5h1.071V10.4a1.356,1.356,0,0,1,1.5-1.5h1.446a1.356,1.356,0,0,1,1.5,1.5v3.75H186.4a1.356,1.356,0,0,1,1.5,1.5v.643a1.333,1.333,0,0,1-1.5,1.5h-2.732v7.179c0,2.732,1.714,3.321,3,3.429,1.125.107,1.5.482,1.5,1.5v1.125c0,1.071-.643,1.5-1.875,1.5-3.322,0-7.232-1.768-7.232-6.8V17.793Z" transform="translate(-82.037 -4.132)"></path> <path class="f" d="M201.7,7.271V6.2a1.333,1.333,0,0,1,1.5-1.5h1.607a1.356,1.356,0,0,1,1.5,1.5V7.271a1.356,1.356,0,0,1-1.5,1.5H203.2A1.312,1.312,0,0,1,201.7,7.271Z" transform="translate(-93.644 -2.182)"></path> <path class="f" d="M201.7,19.7a1.333,1.333,0,0,1,1.5-1.5h1.607a1.356,1.356,0,0,1,1.5,1.5V35.183a1.312,1.312,0,0,1-1.5,1.5H203.2a1.333,1.333,0,0,1-1.5-1.5Z" transform="translate(-93.644 -8.45)"></path> <path class="f" d="M217.907,4.7H216.3a1.356,1.356,0,0,0-1.5,1.5V28.915a1.333,1.333,0,0,0,1.5,1.5h1.607a1.356,1.356,0,0,0,1.5-1.5V6.2A1.38,1.38,0,0,0,217.907,4.7Z" transform="translate(-99.726 -2.182)"></path> <path class="f" d="M230.907,4.7H229.3a1.356,1.356,0,0,0-1.5,1.5V28.915a1.333,1.333,0,0,0,1.5,1.5h1.607a1.356,1.356,0,0,0,1.5-1.5V6.2A1.356,1.356,0,0,0,230.907,4.7Z" transform="translate(-105.762 -2.182)"></path> </g> </svg> 